# xmcd
#
# Track frame offsets: 
#        150
#        13944
#        28024
#        41695
#        55480
#        68194
#        81431
#        94349
#        106204
#        117805
#        129422
#        146096
#        160223
#        179222
#        195273
#        204338
#        214018
#        224844
#        235654
#        249060
#
# Disc length: 3483 seconds
#
# Revision: 0
# Processed by: cddbd v1.5.2PL0 Copyright (c) Steve Scherf et al.
# Submitted via: ExactAudioCopyFreeDBPlugin 1.0
#
DISCID=270d9914
DTITLE=Various Artist - Folk Music Best Hit
DYEAR=1900
DGENRE=
TTITLE0=Bee Gee - I Started A Joke
TTITLE1=Jame Taylor - Honey Man
TTITLE2=John Denver - Take Me Home Country Road
TTITLE3=Cliff Richard - The Young One
TTITLE4=C.C.R. - Cotton Field
TTITLE5=The Brother Four - Green Field
TTITLE6=Scott Mckenzie - San Francisco
TTITLE7=Don Mclean - Vincent
TTITLE8=John Lenon - Oh My Love
TTITLE9=Micheal Jackson - Ben
TTITLE10=Eric Clapton - Wonderful Tonight
TTITLE11=Lobo - My First Time
TTITLE12=Rod Stewart - Sailling
TTITLE13=Morris Alber - Feelling
TTITLE14=Cliff Richard - Theme For A Dream
TTITLE15=Felicia - 500 Miles
TTITLE16=The Cascades - Rhytem Of The Rain
TTITLE17=Bobby Vee - More Than I Can Say
TTITLE18=Simon and Garfunkel - The Sound Of Silence
TTITLE19=Evis Presley - Love Me Thunder
EXTD=
EXTT0=
EXTT1=
EXTT2=
EXTT3=
EXTT4=
EXTT5=
EXTT6=
EXTT7=
EXTT8=
EXTT9=
EXTT10=
EXTT11=
EXTT12=
EXTT13=
EXTT14=
EXTT15=
EXTT16=
EXTT17=
EXTT18=
EXTT19=
PLAYORDER=
